<svg width="28" height="28" viewBox="0 0 28 28" fill="none" xmlns="http://www.w3.org/2000/svg">
<g clip-path="url(#clip0_22_24)">
<path d="M2.15379 0.718018H25.8461C26.6358 0.718018 27.282 1.36417 27.282 2.15392V25.8462C27.282 26.636 26.6358 27.2821 25.8461 27.2821H16.5142L16.4898 18.1505C16.4898 17.0442 16.782 16.7821 17.5976 17.0442L21.4709 20.9175C22.9657 22.3477 23.5838 20.4925 23.1315 19.8111C21.7674 17.8655 19.9223 15.8366 17.5976 13.7237C15.8207 12.6295 14.4271 13.4731 12.4542 12.4543C10.4798 11.4348 8.382 7.53494 7.63533 5.97556C6.88867 4.41617 5.0342 4.41617 5.65236 6.27135C6.27123 8.12581 7.40631 12.5139 9.84877 14.8293C10.3542 15.5846 10.337 15.5925 10.4023 16.4899V27.2821H2.15379C1.36405 27.2821 0.717896 26.636 0.717896 25.8462V2.15392C0.717896 1.36417 1.36405 0.718018 2.15379 0.718018Z" stroke="#704DFF" stroke-linecap="round" stroke-linejoin="round"/>
<path d="M14.8306 10.4024C16.3588 10.4024 17.5976 9.16354 17.5976 7.63538C17.5976 6.10722 16.3588 4.86841 14.8306 4.86841C13.3025 4.86841 12.0637 6.10722 12.0637 7.63538C12.0637 9.16354 13.3025 10.4024 14.8306 10.4024Z" stroke="#704DFF" stroke-linecap="round" stroke-linejoin="round"/>
</g>
<defs>
<clipPath id="clip0_22_24">
<rect width="28" height="28" fill="white"/>
</clipPath>
</defs>
</svg>
