<svg width="1512" height="982" viewBox="0 0 1512 982" fill="none" xmlns="http://www.w3.org/2000/svg">
<rect width="1512" height="982" fill="#050912"/>
<path opacity="0.0310345" d="M626.018 1719.58C668.211 1696.74 689.019 1666.85 694.642 1620.97C700.391 1574.07 648.564 1555.2 649.392 1507.98C650.399 1450.58 715.542 1435.09 721.486 1377.97C729.575 1300.23 624.061 1274.78 631.884 1197.02C639.194 1124.37 730.802 1114.26 741.595 1042C757.089 938.263 581.594 914.937 597.657 811.278C613.661 708.002 784.95 732.764 804.115 629.977C820.473 542.248 693.777 503.081 718.049 417.027C736.793 350.573 829.885 354.028 842.091 286.21C852.084 230.689 784.989 202.309 799.657 147.735C810.569 107.132 857.774 102.577 866.906 61.5769C878.058 11.5076 863.634 -29.1897 822.893 -62.6106" stroke="url(#paint0_linear_19_1689)"/>
<path opacity="0.062069" d="M599.965 1690.56C643.357 1669.86 665.78 1641.04 673.919 1595.51C682.24 1548.95 631.522 1527.52 634.946 1480.42C639.109 1423.15 705.015 1410.92 714.094 1354.17C726.447 1276.94 622.478 1246.27 634.568 1169.01C645.863 1096.82 737.902 1091.29 752.655 1019.66C773.834 916.84 599.863 884.808 621.606 782.091C643.269 679.754 812.961 713.011 837.754 611.319C858.915 524.524 734.547 479.102 763.519 394.374C785.893 328.946 878.667 337.031 894.587 269.914C907.62 214.967 842.179 183.284 859.828 129.516C872.959 89.511 920.35 87.313 931.724 46.8241C945.615 -2.62129 933.45 -43.9811 894.603 -79.3848" stroke="url(#paint1_linear_19_1689)"/>
<path opacity="0.0931034" d="M573.543 1661.48C618.014 1642.97 641.992 1615.3 652.624 1570.24C663.495 1524.17 614.025 1500.24 620.036 1453.37C627.343 1396.38 693.831 1387.46 706.019 1331.23C722.603 1254.73 620.464 1218.92 636.787 1142.37C652.038 1070.84 744.255 1069.9 762.927 999.108C789.734 897.48 617.763 856.828 645.126 755.335C672.389 654.216 840.019 695.878 870.372 595.56C896.278 509.938 774.579 458.385 808.172 375.216C834.114 310.991 926.316 323.685 945.906 257.453C961.945 203.23 898.335 168.332 918.918 115.516C934.232 76.2202 981.678 76.385 995.264 36.5179C1011.86 -12.168 1001.98 -54.0768 965.137 -91.3664" stroke="url(#paint2_linear_19_1689)"/>
<path opacity="0.124138" d="M546.755 1632.32C592.183 1616.05 617.65 1589.62 630.747 1545.15C644.137 1499.68 596.051 1473.32 604.632 1426.81C615.064 1370.27 681.951 1364.67 697.216 1309.13C717.985 1233.55 617.956 1192.71 638.467 1117.07C657.632 1046.4 749.775 1050.05 772.315 980.29C804.675 880.136 635.176 830.977 668.085 730.985C700.872 631.363 865.981 681.314 901.81 582.645C932.391 498.43 813.694 440.888 851.816 359.506C881.256 296.661 972.633 313.929 995.839 248.763C1014.84 195.412 953.236 157.395 976.695 105.677C994.15 67.197 1041.52 69.7241 1057.28 30.5882C1076.53 -17.2048 1068.98 -59.5478 1034.23 -98.6211" stroke="url(#paint3_linear_19_1689)"/>
<path opacity="0.155172" d="M519.607 1603.07C565.868 1589.08 592.754 1563.96 608.279 1520.2C624.151 1475.46 577.581 1446.74 588.708 1400.73C602.237 1344.78 669.341 1342.51 687.639 1287.81C712.537 1213.38 614.892 1167.61 639.536 1093.09C662.561 1023.48 754.377 1031.71 780.724 963.164C818.548 864.759 651.986 807.227 690.35 709.011C728.572 611.158 890.707 669.262 931.915 572.512C967.086 489.936 851.717 426.562 894.264 347.19C927.12 285.897 1017.42 307.691 1044.18 243.77C1066.09 191.439 1006.66 150.406 1032.93 99.9267C1052.48 62.3689 1099.65 67.2514 1117.54 28.9539C1139.39 -17.8152 1134.18 -60.4764 1101.63 -101.226" stroke="url(#paint4_linear_19_1689)"/>
<path opacity="0.186207" d="M492.103 1573.71C539.07 1562.04 567.302 1538.29 585.212 1495.36C603.524 1451.47 558.597 1420.48 572.241 1375.08C588.828 1319.88 655.965 1320.96 677.247 1267.24C706.205 1194.15 611.211 1143.58 639.92 1070.4C666.744 1002.02 757.981 1014.82 788.062 947.679C831.248 851.292 668.078 785.545 711.792 689.374C755.344 593.558 914.061 659.656 960.534 565.091C1000.2 484.379 888.475 415.347 935.329 338.202C971.512 278.629 1060.49 304.89 1090.73 242.389C1115.49 191.22 1058.4 147.285 1087.41 98.183C1109 61.65 1155.83 68.8746 1175.81 31.5205C1200.2 -14.0966 1197.34 -56.9589 1167.08 -99.2736" stroke="url(#paint5_linear_19_1689)"/>
<path opacity="0.217241" d="M464.251 1544.21C511.796 1534.9 541.295 1512.58 561.542 1470.61C582.243 1427.69 539.083 1394.51 555.205 1349.85C574.805 1295.55 641.791 1299.97 665.999 1247.39C698.938 1175.84 606.856 1120.61 639.551 1048.96C670.099 982.009 760.507 999.328 794.24 933.779C842.669 839.674 683.34 765.893 732.284 672.03C781.047 578.514 935.91 652.425 987.521 560.303C1031.57 481.677 923.797 407.177 974.831 332.471C1014.24 274.781 1101.65 305.437 1135.29 244.527C1162.83 194.661 1108.23 147.943 1139.91 100.353C1163.47 64.9454 1209.85 74.4922 1231.85 38.1839C1258.72 -6.15607 1258.22 -49.1022 1230.32 -92.8657" stroke="url(#paint6_linear_19_1689)"/>
<path opacity="0.248276" d="M436.059 1514.57C484.05 1507.64 514.737 1486.82 537.265 1445.91C560.298 1404.09 519.023 1368.79 537.579 1325C560.139 1271.76 626.79 1279.51 653.857 1228.2C690.687 1158.39 601.769 1098.65 638.361 1028.72C672.55 963.386 761.881 985.183 799.174 921.404C852.712 829.84 697.66 748.226 751.7 656.929C805.54 565.969 956.126 647.49 1012.73 558.065C1061.05 481.74 957.52 401.975 1012.59 329.913C1055.12 274.264 1140.73 309.231 1177.67 250.079C1207.91 201.653 1155.96 152.281 1190.21 106.333C1215.69 72.1471 1261.48 83.99 1285.45 48.8269C1314.72 5.88567 1316.58 -37.0265 1291.13 -82.1189" stroke="url(#paint7_linear_19_1689)"/>
<path opacity="0.27931" d="M407.534 1484.76C455.841 1480.23 487.631 1460.97 512.379 1421.24C537.681 1380.62 498.403 1343.32 519.343 1300.51C544.801 1248.46 610.934 1259.52 640.787 1209.63C681.406 1141.75 595.896 1077.66 636.284 1009.65C674.02 946.11 762.03 972.325 802.78 910.491C861.282 821.718 710.931 732.495 769.919 644.014C828.689 555.86 974.584 644.768 1036.03 558.284C1088.48 484.469 989.481 399.658 1048.44 330.437C1093.97 276.983 1177.54 316.164 1217.68 258.933C1250.55 212.079 1201.39 160.188 1238.12 116.008C1265.44 83.1381 1310.51 97.2445 1336.38 63.3232C1367.98 21.8982 1372.2 -20.8623 1349.27 -67.16" stroke="url(#paint8_linear_19_1689)"/>
<path opacity="0.310345" d="M378.687 1454.77C427.177 1452.65 459.983 1435 486.882 1396.56C514.384 1357.25 477.212 1318.05 500.478 1276.34C528.764 1225.63 594.198 1239.97 626.754 1191.63C671.052 1125.86 589.184 1057.61 633.258 991.706C674.437 930.13 760.885 960.691 804.98 900.97C868.285 815.232 723.048 718.645 786.822 633.222C850.361 548.116 991.165 644.166 1057.29 560.861C1113.72 489.759 1019.52 400.135 1082.21 333.945C1130.62 282.831 1211.92 326.119 1255.16 270.966C1290.55 225.812 1244.31 171.544 1283.42 129.254C1312.52 97.7898 1356.75 114.121 1384.45 81.5345C1418.28 41.7394 1424.85 -0.752259 1404.49 -48.1284" stroke="url(#paint9_linear_19_1689)"/>
<path opacity="0.341379" d="M349.528 1424.59C398.068 1424.89 431.799 1408.89 460.777 1371.84C490.403 1333.96 455.438 1292.96 480.967 1252.46C512.004 1203.23 576.559 1220.81 611.729 1174.16C659.584 1110.69 581.583 1038.45 629.221 974.832C673.732 915.39 758.38 950.215 805.699 892.771C873.634 810.303 733.909 706.616 802.295 624.486C870.427 542.66 1005.76 645.59 1076.37 565.691C1136.64 497.497 1047.5 403.305 1113.74 340.327C1164.9 291.694 1243.7 338.971 1289.91 286.046C1327.74 242.717 1284.55 186.221 1325.93 145.936C1356.72 115.964 1400 134.476 1429.45 103.313C1465.42 65.2568 1474.32 23.1504 1456.6 -25.1744" stroke="url(#paint10_linear_19_1689)"/>
<path opacity="0.372414" d="M320.067 1394.19C368.525 1396.91 403.09 1382.61 434.065 1347.05C465.735 1310.7 433.074 1268.01 460.795 1228.85C494.497 1181.23 557.997 1201.99 595.685 1157.16C646.966 1096.16 573.045 1020.14 624.118 958.978C671.837 901.834 754.453 940.826 804.868 885.818C877.245 806.845 743.416 696.343 816.225 617.731C888.765 539.41 1018.25 648.937 1093.16 572.664C1157.1 507.565 1073.26 409.063 1142.88 349.47C1196.64 303.45 1272.73 354.587 1321.79 304.036C1361.95 262.65 1321.93 204.08 1365.47 165.911C1397.87 137.513 1440.06 158.154 1471.19 128.501C1509.21 92.2881 1520.41 50.6824 1505.37 1.54153" stroke="url(#paint11_linear_19_1689)"/>
<path opacity="0.403448" d="M290.318 1363.57C338.56 1368.69 373.864 1356.14 406.753 1322.17C440.379 1287.44 410.11 1243.19 439.948 1205.46C476.223 1159.58 538.494 1183.48 578.597 1140.59C633.162 1082.22 563.525 1002.62 617.892 944.091C668.688 889.402 749.047 932.454 802.418 880.031C879.04 804.771 751.473 687.756 828.507 612.877C905.256 538.275 1028.53 654.1 1107.54 581.662C1174.97 519.835 1096.67 417.294 1169.47 361.249C1225.69 317.97 1298.86 372.825 1350.64 324.786C1393.02 285.457 1356.27 224.975 1401.85 189.026C1435.77 162.28 1476.77 184.994 1509.49 156.931C1549.44 122.661 1562.91 81.6701 1550.6 31.8479" stroke="url(#paint12_linear_19_1689)"/>
<path opacity="0.434483" d="M260.293 1332.7C308.187 1340.22 344.133 1329.45 378.845 1297.16C414.336 1264.15 386.543 1218.45 418.415 1182.26C457.164 1138.25 518.035 1165.22 560.442 1124.38C618.143 1068.82 552.98 985.858 610.492 930.112C664.227 878.028 742.107 925.022 798.289 875.329C878.946 803.987 757.99 680.78 839.037 609.84C919.785 539.162 1036.52 660.967 1119.41 592.562C1190.14 534.178 1117.59 427.878 1193.37 375.535C1251.89 335.114 1321.95 393.539 1376.3 348.143C1420.79 310.979 1387.42 248.749 1434.91 215.12C1470.25 190.099 1509.95 214.824 1544.16 188.428C1585.95 156.195 1601.66 115.931 1592.1 65.5636" stroke="url(#paint13_linear_19_1689)"/>
<path opacity="0.465517" d="M230.006 1301.58C277.42 1311.48 313.91 1302.51 350.351 1271.99C387.608 1240.8 362.367 1193.78 396.186 1159.22C437.303 1117.2 496.607 1147.17 541.202 1108.5C601.881 1055.88 541.371 969.788 601.87 916.983C658.397 867.646 733.585 918.454 792.423 871.626C876.894 804.399 762.881 675.337 847.719 608.53C932.244 541.97 1042.12 669.421 1128.65 605.237C1202.51 550.455 1135.9 440.688 1214.46 392.19C1275.12 354.739 1341.87 416.572 1398.64 373.945C1445.11 339.046 1415.21 275.24 1464.49 244.022C1501.16 220.795 1539.44 247.463 1575.06 222.808C1618.56 192.699 1636.46 153.272 1629.69 102.498" stroke="url(#paint14_linear_19_1689)"/>
<path opacity="0.496552" d="M199.47 1270.2C246.276 1282.44 283.209 1275.3 321.278 1246.64C360.2 1217.35 337.58 1169.13 373.254 1136.3C416.626 1096.39 474.201 1129.27 520.862 1092.87C584.352 1043.35 528.66 954.362 591.98 904.642C651.144 858.186 723.434 912.669 784.768 868.835C872.821 805.906 766.063 671.344 854.46 608.853C942.53 546.593 1045.25 679.341 1135.19 619.553C1211.96 568.524 1151.48 455.591 1232.6 411.072C1295.24 376.692 1358.5 441.764 1417.53 402.022C1465.86 369.486 1439.51 304.278 1490.44 275.557C1528.33 254.188 1565.09 282.725 1602.02 259.877C1647.12 231.975 1667.17 193.494 1663.2 142.453" stroke="url(#paint15_linear_19_1689)"/>
<path opacity="0.527586" d="M168.702 1238.53C214.77 1253.09 252.045 1247.79 291.638 1221.08C332.119 1193.76 312.182 1144.48 349.613 1113.48C395.12 1075.78 450.808 1111.48 499.407 1077.45C565.534 1031.16 514.813 939.522 580.782 893.023C642.42 849.577 711.614 907.585 775.275 866.866C866.669 808.407 767.459 668.714 859.173 610.71C950.547 552.921 1045.82 690.601 1138.93 635.374C1218.4 588.238 1164.21 472.448 1247.67 432.029C1312.12 400.816 1371.71 468.949 1432.85 432.2C1482.9 402.115 1460.17 335.685 1512.61 309.539C1551.63 290.086 1586.77 320.414 1624.91 299.437C1671.48 273.819 1693.61 236.389 1692.45 185.22" stroke="url(#paint16_linear_19_1689)"/>
<path opacity="0.558621" d="M137.716 1206.58C182.921 1223.41 220.436 1219.98 261.444 1195.27C303.372 1170 286.173 1119.8 325.258 1090.7C372.777 1055.32 426.424 1093.74 476.829 1062.19C545.412 1019.25 499.801 925.212 568.237 882.062C632.18 841.745 698.089 903.118 763.902 865.625C858.386 811.797 766.997 667.355 861.775 613.998C956.203 560.838 1043.77 703.074 1139.79 652.559C1221.74 609.444 1174 491.114 1259.57 454.906C1325.64 426.945 1381.41 497.952 1444.48 464.299C1496.12 436.747 1477.08 369.276 1530.88 345.777C1570.92 328.293 1604.34 360.33 1643.58 341.28C1691.5 318.017 1715.66 281.74 1717.32 230.583" stroke="url(#paint17_linear_19_1689)"/>
<path opacity="0.589655" d="M106.529 1174.32C150.746 1193.38 188.399 1191.82 230.71 1169.19C273.97 1146.04 259.556 1095.06 300.188 1067.94C349.588 1034.98 401.049 1076.02 453.12 1047.01C523.971 1007.55 483.595 911.372 554.311 871.688C620.384 834.611 682.827 899.182 750.612 865.017C847.928 815.968 764.609 667.174 862.192 618.609C959.415 570.223 1039.04 716.625 1137.71 670.96C1221.92 631.985 1180.75 511.441 1268.19 479.543C1335.71 454.911 1387.49 528.597 1452.33 498.13C1505.42 473.188 1490.11 404.861 1545.14 384.074C1586.08 368.607 1617.7 402.265 1657.93 385.195C1707.06 364.349 1733.18 329.325 1737.66 278.321" stroke="url(#paint18_linear_19_1689)"/>
<path opacity="0.62069" d="M75.1583 1141.76C118.266 1162.99 155.953 1163.31 199.452 1142.81C243.925 1121.86 232.335 1070.22 274.404 1045.17C325.549 1014.71 374.681 1058.25 428.277 1031.88C501.202 995.999 466.171 897.943 538.974 861.835C606.995 828.098 665.801 895.69 735.372 864.948C835.253 820.812 760.233 668.072 860.354 624.433C960.105 580.955 1031.57 731.121 1132.61 690.432C1218.85 655.704 1184.37 533.275 1273.45 505.775C1342.23 484.538 1389.89 560.702 1456.31 533.506C1510.7 511.24 1499.17 442.245 1555.27 424.226C1597 410.82 1626.72 446.006 1667.84 430.962C1718.05 412.591 1746.06 378.917 1753.34 328.205" stroke="url(#paint19_linear_19_1689)"/>
<path opacity="0.651724" d="M43.6203 1108.87C85.5012 1132.22 123.119 1134.42 167.685 1116.12C213.251 1097.4 204.517 1045.26 247.906 1022.34C300.656 994.467 347.326 1040.4 402.299 1016.73C477.097 984.53 447.509 884.863 522.198 852.43C591.982 822.127 646.989 892.554 718.156 865.318C820.327 826.216 753.812 669.95 856.196 631.356C958.202 592.905 1021.31 746.424 1124.45 710.822C1212.48 680.436 1184.78 556.457 1275.25 533.43C1345.11 515.648 1388.51 594.08 1456.34 570.229C1511.88 550.703 1504.16 481.228 1561.17 466.027C1603.58 454.717 1631.33 491.335 1673.22 478.359C1724.37 462.513 1754.2 430.28 1764.25 380" stroke="url(#paint20_linear_19_1689)"/>
<path opacity="0.682759" d="M11.933 1075.66C52.4721 1101.07 89.917 1105.13 135.429 1089.07C181.962 1072.65 176.108 1020.15 220.698 999.417C274.91 974.212 318.989 1022.4 375.188 1001.51C451.656 973.074 427.59 872.071 503.961 843.401C575.316 816.614 626.373 889.684 698.942 866.029C803.124 832.068 745.295 672.705 849.662 639.262C953.643 605.943 1008.22 762.393 1113.18 731.976C1202.76 706.015 1181.92 580.827 1273.53 562.336C1344.27 548.057 1383.3 628.543 1452.35 608.102C1508.88 591.368 1505 521.604 1562.76 509.263C1605.74 500.08 1631.44 538.03 1673.98 527.158C1725.93 513.88 1757.49 483.177 1770.3 433.466" stroke="url(#paint21_linear_19_1689)"/>
<path opacity="0.713793" d="M-19.8853 1042.12C19.2009 1069.51 56.3709 1075.43 102.704 1061.66C150.076 1047.58 147.119 994.856 192.788 976.373C248.312 953.901 289.68 1004.22 346.951 986.153C424.878 961.566 406.401 859.503 484.244 834.675C556.976 811.478 603.943 886.99 677.713 866.981C783.621 838.255 734.637 676.23 840.701 648.03C946.372 619.934 992.266 778.887 1098.75 753.738C1189.64 732.274 1175.72 606.22 1268.22 592.316C1339.65 581.579 1374.19 663.898 1444.27 646.924C1501.65 633.027 1501.61 563.166 1559.97 553.717C1603.4 546.688 1626.97 585.865 1670.05 577.126C1722.66 566.454 1755.87 537.364 1771.39 488.359" stroke="url(#paint22_linear_19_1689)"/>
<path opacity="0.744828" d="M-51.816 1008.23C-14.2898 1037.53 22.5033 1045.3 69.5307 1033.85C117.612 1022.15 117.559 969.352 164.182 953.168C220.866 933.492 259.41 985.805 317.596 970.612C396.769 949.939 383.932 847.095 463.033 826.178C536.941 806.634 579.691 884.382 654.46 868.073C761.803 844.66 721.799 680.418 829.268 657.538C936.34 634.743 973.428 795.764 1081.15 775.952C1173.1 759.042 1166.13 632.468 1259.26 623.189C1331.19 616.023 1361.16 699.95 1432.08 686.488C1490.14 675.467 1493.94 605.7 1552.74 599.171C1596.5 594.313 1617.88 634.61 1661.38 628.028C1714.51 619.991 1749.28 592.595 1767.47 544.43" stroke="url(#paint23_linear_19_1689)"/>
<path opacity="0.775862" d="M-83.8404 974.005C-47.9771 1005.13 -11.6616 1014.72 35.9309 1005.63C84.5901 996.34 87.4413 943.61 134.891 929.77C192.579 912.944 228.192 967.103 287.135 954.828C367.336 938.126 360.174 834.785 440.318 817.835C515.199 801.998 553.614 881.768 629.178 869.205C737.661 851.169 706.747 685.16 815.327 667.662C923.506 650.23 951.686 812.877 1060.35 798.456C1153.1 786.148 1153.1 659.4 1246.62 654.772C1318.84 651.197 1344.15 736.501 1415.72 726.589C1474.3 718.475 1481.94 648.992 1541.02 645.401C1584.98 642.728 1604.12 684.035 1647.93 679.628C1701.42 674.247 1737.65 648.62 1758.46 601.426" stroke="url(#paint24_linear_19_1689)"/>
<path opacity="0.806897" d="M-115.939 939.427C-81.8372 972.294 -46.099 983.678 1.92814 976.973C51.0318 970.118 56.7796 917.602 104.926 906.144C163.46 892.213 196.046 948.072 255.583 938.749C336.593 926.063 335.125 822.506 416.091 809.571C491.741 797.484 525.715 879.058 601.867 870.274C711.193 857.665 689.453 690.344 798.847 678.278C907.837 666.256 927.031 830.083 1036.34 821.093C1129.64 813.42 1136.61 686.846 1230.26 686.881C1302.58 686.907 1323.16 773.355 1395.17 767.02C1454.12 761.834 1465.57 692.827 1524.77 692.182C1568.82 691.702 1585.66 733.905 1629.65 731.686C1683.37 728.976 1720.95 705.187 1744.33 659.095" stroke="url(#paint25_linear_19_1689)"/>
<path opacity="0.837931" d="M-148.093 904.496C-115.846 939.016 -80.7829 952.164 -32.4528 947.86C16.9607 943.459 25.5893 891.302 74.2996 882.256C133.52 871.259 162.988 928.664 222.957 922.319C304.553 913.684 308.784 810.196 390.351 801.31C466.562 793.007 496.002 876.16 572.533 871.181C682.403 864.033 669.896 695.859 779.804 689.256C889.306 682.678 899.462 847.236 1009.12 843.702C1102.71 840.685 1116.64 714.632 1210.15 719.329C1282.37 722.957 1298.17 810.311 1370.43 807.571C1429.59 805.327 1444.81 736.985 1503.97 739.289C1547.98 741.003 1562.48 783.986 1606.53 783.961C1660.32 783.929 1699.16 762.045 1725.05 717.18" stroke="url(#paint26_linear_19_1689)"/>
<path opacity="0.868966" d="M-180.283 869.21C-149.979 905.289 -115.687 920.165 -67.1866 918.273C-17.5988 916.339 -6.113 864.683 43.0282 858.075C102.773 850.042 129.043 908.836 189.278 905.485C271.238 900.926 281.155 797.79 363.099 792.978C439.662 788.481 464.488 872.986 541.188 871.825C651.301 870.157 648.062 701.591 758.182 700.47C867.896 699.353 868.986 864.192 978.687 866.123C1072.32 867.771 1093.16 742.583 1186.29 751.931C1258.2 759.15 1269.18 847.171 1341.49 848.032C1400.69 848.738 1419.66 781.247 1478.6 786.493C1522.46 790.397 1534.57 834.044 1578.56 836.211C1632.28 838.858 1672.28 818.938 1700.6 775.424" stroke="url(#paint27_linear_19_1689)"/>
<path opacity="0.9" d="M-212.489 833.569C-184.211 871.107 -150.785 887.67 -102.246 888.196C-52.6201 888.734 -38.3086 837.72 11.1286 833.569C71.2331 828.522 94.233 888.543 154.57 888.196C236.668 887.724 252.245 785.224 334.341 784.498C411.047 783.82 431.191 869.446 507.849 872.105C617.903 875.923 623.941 707.426 733.972 711.79C843.597 716.138 835.618 880.806 945.063 888.196C1038.47 894.504 1066.17 770.526 1158.66 784.498C1230.08 795.288 1236.2 883.735 1308.36 888.196C1367.44 891.848 1390.1 825.395 1448.67 833.569C1492.26 839.651 1501.95 883.841 1545.76 888.196C1599.26 893.515 1640.3 875.613 1670.97 833.569" stroke="url(#paint28_linear_19_1689)"/>
<defs>
<linearGradient id="paint0_linear_19_1689" x1="597.198" y1="814.649" x2="788.715" y2="837.649" gradientUnits="userSpaceOnUse">
<stop offset="0.819444" stop-color="#D6D8D9" stop-opacity="0.79"/>
<stop offset="1" stop-color="#DADADA" stop-opacity="0"/>
</linearGradient>
<linearGradient id="paint1_linear_19_1689" x1="620.962" y1="785.434" x2="810.784" y2="818.887" gradientUnits="userSpaceOnUse">
<stop offset="0.819444" stop-color="#D6D8D9" stop-opacity="0.79"/>
<stop offset="1" stop-color="#DADADA" stop-opacity="0"/>
</linearGradient>
<linearGradient id="paint2_linear_19_1689" x1="644.3" y1="758.642" x2="831.811" y2="802.4" gradientUnits="userSpaceOnUse">
<stop offset="0.819444" stop-color="#D6D8D9" stop-opacity="0.79"/>
<stop offset="1" stop-color="#DADADA" stop-opacity="0"/>
</linearGradient>
<linearGradient id="paint3_linear_19_1689" x1="667.077" y1="734.246" x2="851.68" y2="788.121" gradientUnits="userSpaceOnUse">
<stop offset="0.819444" stop-color="#D6D8D9" stop-opacity="0.79"/>
<stop offset="1" stop-color="#DADADA" stop-opacity="0"/>
</linearGradient>
<linearGradient id="paint4_linear_19_1689" x1="689.164" y1="712.217" x2="870.28" y2="775.979" gradientUnits="userSpaceOnUse">
<stop offset="0.819444" stop-color="#D6D8D9" stop-opacity="0.79"/>
<stop offset="1" stop-color="#DADADA" stop-opacity="0"/>
</linearGradient>
<linearGradient id="paint5_linear_19_1689" x1="710.432" y1="692.517" x2="887.507" y2="765.897" gradientUnits="userSpaceOnUse">
<stop offset="0.819444" stop-color="#D6D8D9" stop-opacity="0.79"/>
<stop offset="1" stop-color="#DADADA" stop-opacity="0"/>
</linearGradient>
<linearGradient id="paint6_linear_19_1689" x1="730.752" y1="675.101" x2="903.26" y2="757.8" gradientUnits="userSpaceOnUse">
<stop offset="0.819444" stop-color="#D6D8D9" stop-opacity="0.79"/>
<stop offset="1" stop-color="#DADADA" stop-opacity="0"/>
</linearGradient>
<linearGradient id="paint7_linear_19_1689" x1="750.002" y1="659.919" x2="917.444" y2="751.605" gradientUnits="userSpaceOnUse">
<stop offset="0.819444" stop-color="#D6D8D9" stop-opacity="0.79"/>
<stop offset="1" stop-color="#DADADA" stop-opacity="0"/>
</linearGradient>
<linearGradient id="paint8_linear_19_1689" x1="768.059" y1="646.916" x2="929.97" y2="747.23" gradientUnits="userSpaceOnUse">
<stop offset="0.819444" stop-color="#D6D8D9" stop-opacity="0.79"/>
<stop offset="1" stop-color="#DADADA" stop-opacity="0"/>
</linearGradient>
<linearGradient id="paint9_linear_19_1689" x1="784.805" y1="636.028" x2="940.751" y2="744.591" gradientUnits="userSpaceOnUse">
<stop offset="0.819444" stop-color="#D6D8D9" stop-opacity="0.79"/>
<stop offset="1" stop-color="#DADADA" stop-opacity="0"/>
</linearGradient>
<linearGradient id="paint10_linear_19_1689" x1="800.126" y1="627.187" x2="949.706" y2="743.598" gradientUnits="userSpaceOnUse">
<stop offset="0.819444" stop-color="#D6D8D9" stop-opacity="0.79"/>
<stop offset="1" stop-color="#DADADA" stop-opacity="0"/>
</linearGradient>
<linearGradient id="paint11_linear_19_1689" x1="813.91" y1="620.32" x2="956.757" y2="744.165" gradientUnits="userSpaceOnUse">
<stop offset="0.819444" stop-color="#D6D8D9" stop-opacity="0.79"/>
<stop offset="1" stop-color="#DADADA" stop-opacity="0"/>
</linearGradient>
<linearGradient id="paint12_linear_19_1689" x1="826.053" y1="615.347" x2="961.83" y2="746.199" gradientUnits="userSpaceOnUse">
<stop offset="0.819444" stop-color="#D6D8D9" stop-opacity="0.79"/>
<stop offset="1" stop-color="#DADADA" stop-opacity="0"/>
</linearGradient>
<linearGradient id="paint13_linear_19_1689" x1="836.451" y1="612.185" x2="964.856" y2="749.608" gradientUnits="userSpaceOnUse">
<stop offset="0.819444" stop-color="#D6D8D9" stop-opacity="0.79"/>
<stop offset="1" stop-color="#DADADA" stop-opacity="0"/>
</linearGradient>
<linearGradient id="paint14_linear_19_1689" x1="845.007" y1="610.743" x2="965.767" y2="754.296" gradientUnits="userSpaceOnUse">
<stop offset="0.819444" stop-color="#D6D8D9" stop-opacity="0.79"/>
<stop offset="1" stop-color="#DADADA" stop-opacity="0"/>
</linearGradient>
<linearGradient id="paint15_linear_19_1689" x1="851.63" y1="610.928" x2="964.501" y2="760.167" gradientUnits="userSpaceOnUse">
<stop offset="0.819444" stop-color="#D6D8D9" stop-opacity="0.79"/>
<stop offset="1" stop-color="#DADADA" stop-opacity="0"/>
</linearGradient>
<linearGradient id="paint16_linear_19_1689" x1="856.233" y1="612.641" x2="960.999" y2="767.12" gradientUnits="userSpaceOnUse">
<stop offset="0.819444" stop-color="#D6D8D9" stop-opacity="0.79"/>
<stop offset="1" stop-color="#DADADA" stop-opacity="0"/>
</linearGradient>
<linearGradient id="paint17_linear_19_1689" x1="858.733" y1="615.78" x2="955.205" y2="775.053" gradientUnits="userSpaceOnUse">
<stop offset="0.819444" stop-color="#D6D8D9" stop-opacity="0.79"/>
<stop offset="1" stop-color="#DADADA" stop-opacity="0"/>
</linearGradient>
<linearGradient id="paint18_linear_19_1689" x1="859.056" y1="620.237" x2="947.069" y2="783.862" gradientUnits="userSpaceOnUse">
<stop offset="0.819444" stop-color="#D6D8D9" stop-opacity="0.79"/>
<stop offset="1" stop-color="#DADADA" stop-opacity="0"/>
</linearGradient>
<linearGradient id="paint19_linear_19_1689" x1="857.133" y1="625.903" x2="936.543" y2="793.44" gradientUnits="userSpaceOnUse">
<stop offset="0.819444" stop-color="#D6D8D9" stop-opacity="0.79"/>
<stop offset="1" stop-color="#DADADA" stop-opacity="0"/>
</linearGradient>
<linearGradient id="paint20_linear_19_1689" x1="852.898" y1="632.664" x2="923.584" y2="803.678" gradientUnits="userSpaceOnUse">
<stop offset="0.819444" stop-color="#D6D8D9" stop-opacity="0.79"/>
<stop offset="1" stop-color="#DADADA" stop-opacity="0"/>
</linearGradient>
<linearGradient id="paint21_linear_19_1689" x1="846.297" y1="640.403" x2="908.154" y2="814.463" gradientUnits="userSpaceOnUse">
<stop offset="0.819444" stop-color="#D6D8D9" stop-opacity="0.79"/>
<stop offset="1" stop-color="#DADADA" stop-opacity="0"/>
</linearGradient>
<linearGradient id="paint22_linear_19_1689" x1="837.278" y1="649.002" x2="890.219" y2="825.68" gradientUnits="userSpaceOnUse">
<stop offset="0.819444" stop-color="#D6D8D9" stop-opacity="0.79"/>
<stop offset="1" stop-color="#DADADA" stop-opacity="0"/>
</linearGradient>
<linearGradient id="paint23_linear_19_1689" x1="825.796" y1="658.338" x2="869.752" y2="837.213" gradientUnits="userSpaceOnUse">
<stop offset="0.819444" stop-color="#D6D8D9" stop-opacity="0.79"/>
<stop offset="1" stop-color="#DADADA" stop-opacity="0"/>
</linearGradient>
<linearGradient id="paint24_linear_19_1689" x1="811.816" y1="668.289" x2="846.728" y2="848.942" gradientUnits="userSpaceOnUse">
<stop offset="0.819444" stop-color="#D6D8D9" stop-opacity="0.79"/>
<stop offset="1" stop-color="#DADADA" stop-opacity="0"/>
</linearGradient>
<linearGradient id="paint25_linear_19_1689" x1="795.306" y1="678.728" x2="821.131" y2="860.745" gradientUnits="userSpaceOnUse">
<stop offset="0.819444" stop-color="#D6D8D9" stop-opacity="0.79"/>
<stop offset="1" stop-color="#DADADA" stop-opacity="0"/>
</linearGradient>
<linearGradient id="paint26_linear_19_1689" x1="776.243" y1="689.53" x2="792.949" y2="872.498" gradientUnits="userSpaceOnUse">
<stop offset="0.819444" stop-color="#D6D8D9" stop-opacity="0.79"/>
<stop offset="1" stop-color="#DADADA" stop-opacity="0"/>
</linearGradient>
<linearGradient id="paint27_linear_19_1689" x1="754.611" y1="700.566" x2="762.178" y2="884.076" gradientUnits="userSpaceOnUse">
<stop offset="0.819444" stop-color="#D6D8D9" stop-opacity="0.79"/>
<stop offset="1" stop-color="#DADADA" stop-opacity="0"/>
</linearGradient>
<linearGradient id="paint28_linear_19_1689" x1="730.401" y1="711.708" x2="728.819" y2="895.352" gradientUnits="userSpaceOnUse">
<stop offset="0.819444" stop-color="#D6D8D9" stop-opacity="0.79"/>
<stop offset="1" stop-color="#DADADA" stop-opacity="0"/>
</linearGradient>
</defs>
</svg>
