<svg width="28" height="28" viewBox="0 0 28 28" fill="none" xmlns="http://www.w3.org/2000/svg">
<g clip-path="url(#clip0_22_21)">
<path d="M2.13945 0.718018C1.75863 0.718018 1.3934 0.869299 1.12412 1.13858C0.854834 1.40787 0.703552 1.77309 0.703552 2.15392V25.8462C0.703552 26.227 0.854834 26.5923 1.12412 26.8616C1.3934 27.1308 1.75863 27.2821 2.13945 27.2821H25.8605C26.2413 27.2821 26.6065 27.1308 26.8758 26.8616C27.1451 26.5923 27.2964 26.227 27.2964 25.8462V2.15392C27.2964 1.77309 27.1451 1.40787 26.8758 1.13858C26.6065 0.869299 26.2413 0.718018 25.8605 0.718018H2.13945Z" stroke="#704DFF" stroke-linecap="round" stroke-linejoin="round"/>
<path d="M19.2554 5.47095C19.8901 5.47095 20.5106 5.65917 21.0384 6.0118C21.5661 6.36444 21.9775 6.86565 22.2204 7.45206C22.4633 8.03847 22.5268 8.68374 22.403 9.30627C22.2792 9.9288 21.9735 10.5006 21.5247 10.9494C21.0759 11.3983 20.504 11.7039 19.8815 11.8277C19.259 11.9516 18.6137 11.888 18.0273 11.6451C17.4409 11.4022 16.9397 10.9909 16.587 10.4631C16.2344 9.93538 16.0462 9.3149 16.0462 8.68018C16.0462 7.82904 16.3843 7.01276 16.9862 6.41091C17.588 5.80906 18.4043 5.47095 19.2554 5.47095ZM11.1282 11.8463L16.3118 17.0299C16.3586 17.0777 16.4145 17.1156 16.4761 17.1415C16.5378 17.1674 16.6039 17.1808 16.6708 17.1808C16.7377 17.1808 16.8039 17.1674 16.8655 17.1415C16.9271 17.1156 16.983 17.0777 17.0298 17.0299L18.0205 16.0392C18.116 15.9445 18.245 15.8913 18.3795 15.8913C18.514 15.8913 18.643 15.9445 18.7385 16.0392L24.3457 21.6463C24.4174 21.7166 24.4665 21.8068 24.4865 21.9053C24.5065 22.0037 24.4966 22.1059 24.4579 22.1987C24.4193 22.2914 24.3537 22.3704 24.2697 22.4255C24.1857 22.4807 24.0872 22.5093 23.9867 22.5079H4.00619C3.91402 22.5086 3.82343 22.484 3.74432 22.4367C3.66521 22.3894 3.60063 22.3213 3.55764 22.2397C3.51466 22.1582 3.49492 22.0664 3.50058 21.9744C3.50625 21.8824 3.53711 21.7938 3.58978 21.7181L10.4103 11.9397C10.4505 11.8853 10.5013 11.8397 10.5595 11.8054C10.6178 11.7712 10.6824 11.749 10.7494 11.7403C10.8164 11.7316 10.8845 11.7365 10.9496 11.7547C11.0147 11.7729 11.0755 11.8041 11.1282 11.8463Z" stroke="#704DFF" stroke-linecap="round" stroke-linejoin="round"/>
</g>
<defs>
<clipPath id="clip0_22_21">
<rect width="28" height="28" fill="white"/>
</clipPath>
</defs>
</svg>
