<svg width="28" height="18" viewBox="0 0 28 18" fill="none" xmlns="http://www.w3.org/2000/svg">
<g clip-path="url(#clip0_22_9)">
<path d="M25.5426 4.86867C25.4296 3.95354 25.0764 3.08904 24.5222 2.37111C23.968 1.65318 23.2345 1.10989 22.403 0.801523C21.5716 0.493156 20.6747 0.431773 19.8119 0.624184C18.9491 0.816595 18.1541 1.25528 17.5152 1.89155H10.511C9.62545 1.01324 8.45228 0.522405 7.23189 0.519605C6.0697 0.517374 4.94642 0.957407 4.07155 1.75763C3.19669 2.55785 2.62999 3.66361 2.47716 4.86867L1.22453 15.3229C1.01466 17.9913 5.50707 18.0668 6.34653 16.2284L9.08132 10.1095H18.9187L21.6535 16.2284C22.493 18.0531 26.9854 17.9913 26.7755 15.3229L25.5426 4.86867ZM22.4733 4.54627C22.6577 4.54491 22.8384 4.60088 22.9924 4.70708C23.1465 4.81329 23.2668 4.96494 23.3383 5.1428C23.4098 5.32067 23.4292 5.51674 23.394 5.70614C23.3588 5.89554 23.2707 6.06975 23.1407 6.20666C23.0107 6.34358 22.8448 6.43704 22.664 6.47518C22.4831 6.51332 22.2955 6.49444 22.125 6.42092C21.9544 6.3474 21.8086 6.22256 21.706 6.06222C21.6034 5.90189 21.5486 5.71329 21.5486 5.52035C21.5451 5.39071 21.5664 5.26166 21.6112 5.14074C21.656 5.01983 21.7235 4.90949 21.8096 4.81621C21.8957 4.72292 21.9988 4.64857 22.1128 4.5975C22.2267 4.54644 22.3493 4.51969 22.4733 4.51883V4.54627ZM17.7513 5.52035C17.7513 5.262 17.8495 5.01424 18.0241 4.83157C18.1988 4.64889 18.4356 4.54627 18.6826 4.54627C18.8668 4.54627 19.0469 4.60339 19.2 4.71043C19.3531 4.81746 19.4725 4.96959 19.543 5.14758C19.6135 5.32557 19.6319 5.52143 19.596 5.71038C19.5601 5.89933 19.4714 6.0729 19.3411 6.20913C19.2109 6.34535 19.0449 6.43813 18.8643 6.47571C18.6836 6.5133 18.4964 6.49401 18.3262 6.42028C18.1561 6.34656 18.0106 6.22171 17.9083 6.06152C17.806 5.90133 17.7513 5.713 17.7513 5.52035ZM6.2875 7.64686V6.46699H5.15948C5.00816 6.46699 4.86303 6.40411 4.75603 6.29219C4.64903 6.18027 4.58891 6.02847 4.58891 5.87019V5.12248C4.58805 5.04354 4.60216 4.96519 4.63045 4.89199C4.65873 4.81879 4.70062 4.75219 4.75369 4.69604C4.80676 4.6399 4.86995 4.59532 4.93961 4.5649C5.00927 4.53448 5.084 4.51882 5.15948 4.51883H6.2875V3.34581C6.2875 3.18753 6.34762 3.03574 6.45462 2.92381C6.56162 2.81189 6.70675 2.74902 6.85807 2.74902H7.57292C7.6484 2.74811 7.7233 2.76288 7.79328 2.79246C7.86327 2.82205 7.92694 2.86586 7.98062 2.92137C8.0343 2.97688 8.07692 3.04298 8.106 3.11583C8.13508 3.18869 8.15005 3.26686 8.15005 3.34581V4.51883H9.27151C9.347 4.51882 9.42173 4.53448 9.49138 4.5649C9.56104 4.59532 9.62423 4.6399 9.6773 4.69604C9.73037 4.75219 9.77226 4.81879 9.80055 4.89199C9.82883 4.96519 9.84295 5.04354 9.84208 5.12248V5.87019C9.84208 6.02847 9.78197 6.18027 9.67497 6.29219C9.56796 6.40411 9.42284 6.46699 9.27151 6.46699H8.15005V7.64686C8.15005 7.72582 8.13508 7.80399 8.106 7.87684C8.07692 7.9497 8.0343 8.0158 7.98062 8.07131C7.92694 8.12681 7.86327 8.17063 7.79328 8.20022C7.7233 8.2298 7.6484 8.24457 7.57292 8.24366H6.85807C6.80653 8.23951 6.75577 8.22797 6.70723 8.20936L6.37932 7.94869C6.32267 7.85887 6.2909 7.75441 6.2875 7.64686ZM21.5092 7.48223C21.5092 7.6743 21.4549 7.86207 21.3531 8.02195C21.2514 8.18182 21.1067 8.30666 20.9373 8.38078C20.7679 8.45489 20.5813 8.47496 20.401 8.43848C20.2208 8.40199 20.0548 8.31057 19.9241 8.17571C19.7933 8.04085 19.7036 7.86857 19.6662 7.68053C19.6288 7.49249 19.6454 7.29708 19.7139 7.11887C19.7823 6.94066 19.8997 6.7876 20.0511 6.67894C20.2025 6.57027 20.3812 6.51085 20.5648 6.50815C20.6882 6.50633 20.8107 6.53018 20.9252 6.57832C21.0397 6.62646 21.144 6.69792 21.2318 6.78855C21.3197 6.87919 21.3895 6.98718 21.4371 7.10627C21.4847 7.22535 21.5092 7.35315 21.5092 7.48223ZM20.5648 2.53637C20.8113 2.53451 21.0486 2.63422 21.2253 2.81395C21.4021 2.99368 21.5041 3.23896 21.5092 3.49673C21.5118 3.68935 21.4597 3.87846 21.3595 4.04012C21.2594 4.20178 21.1156 4.32875 20.9465 4.40496C20.7773 4.48118 20.5903 4.50321 20.4092 4.46829C20.2281 4.43337 20.0609 4.34305 19.9289 4.20876C19.7968 4.07447 19.7058 3.90224 19.6673 3.71384C19.6288 3.52544 19.6446 3.32935 19.7127 3.15034C19.7808 2.97133 19.8981 2.81746 20.0497 2.70817C20.2014 2.59889 20.3807 2.5391 20.5648 2.53637Z" stroke="#FBFBFB" stroke-linecap="round" stroke-linejoin="round"/>
</g>
<defs>
<clipPath id="clip0_22_9">
<rect width="28" height="18" fill="white"/>
</clipPath>
</defs>
</svg>
