<svg width="21" height="15" viewBox="0 0 21 15" fill="none" xmlns="http://www.w3.org/2000/svg">
<g clip-path="url(#clip0_20_1877)">
<path d="M19.1569 4.37022C19.0721 3.67694 18.8073 3.02202 18.3916 2.47813C17.976 1.93424 17.4258 1.52266 16.8022 1.28905C16.1786 1.05544 15.506 1.00893 14.8589 1.1547C14.2118 1.30047 13.6156 1.6328 13.1364 2.11483H7.88324C7.21905 1.44944 6.33918 1.07759 5.42389 1.07547C4.55225 1.07378 3.70978 1.40714 3.05363 2.01337C2.39749 2.6196 1.97246 3.4573 1.85784 4.37022L0.918365 12.2901C0.760967 14.3116 4.13027 14.3688 4.75987 12.9761L6.81096 8.34055H14.189L16.2401 12.9761C16.8697 14.3584 20.239 14.3116 20.0816 12.2901L19.1569 4.37022ZM16.8549 4.12597C16.9933 4.12494 17.1288 4.16735 17.2443 4.2478C17.3598 4.32826 17.4501 4.44315 17.5037 4.5779C17.5573 4.71264 17.5719 4.86118 17.5455 5.00467C17.5191 5.14815 17.453 5.28013 17.3555 5.38385C17.258 5.48757 17.1336 5.55837 16.9979 5.58727C16.8623 5.61617 16.7216 5.60186 16.5937 5.54616C16.4658 5.49047 16.3564 5.39589 16.2795 5.27443C16.2025 5.15296 16.1614 5.01009 16.1614 4.86391C16.1588 4.76571 16.1747 4.66794 16.2084 4.57633C16.242 4.48473 16.2926 4.40115 16.3572 4.33048C16.4218 4.25981 16.4991 4.20348 16.5845 4.16479C16.67 4.1261 16.7619 4.10584 16.8549 4.10519V4.12597ZM13.3135 4.86391C13.3135 4.6682 13.3871 4.4805 13.518 4.34211C13.649 4.20372 13.8267 4.12597 14.0119 4.12597C14.1501 4.12597 14.2851 4.16925 14.4 4.25034C14.5148 4.33142 14.6044 4.44668 14.6572 4.58152C14.7101 4.71636 14.7239 4.86473 14.697 5.00788C14.67 5.15102 14.6035 5.28251 14.5058 5.38572C14.4081 5.48892 14.2837 5.5592 14.1482 5.58767C14.0127 5.61615 13.8723 5.60154 13.7446 5.54568C13.617 5.48983 13.5079 5.39525 13.4312 5.27389C13.3544 5.15254 13.3135 5.00986 13.3135 4.86391ZM4.7156 6.47491V5.58107H3.86958C3.75609 5.58107 3.64724 5.53343 3.56699 5.44864C3.48674 5.36386 3.44166 5.24886 3.44166 5.12895V4.5625C3.441 4.50269 3.45159 4.44334 3.47281 4.38789C3.49402 4.33243 3.52544 4.28198 3.56524 4.23944C3.60504 4.19691 3.65244 4.16314 3.70468 4.14009C3.75692 4.11705 3.81297 4.10518 3.86958 4.10519H4.7156V3.21654C4.7156 3.09663 4.76068 2.98163 4.84093 2.89684C4.92119 2.81205 5.03003 2.76442 5.14352 2.76442H5.67966C5.73627 2.76373 5.79245 2.77492 5.84493 2.79733C5.89742 2.81975 5.94518 2.85294 5.98544 2.89499C6.02569 2.93704 6.05766 2.98712 6.07947 3.04231C6.10128 3.09751 6.11251 3.15673 6.11251 3.21654V4.10519H6.9536C7.01022 4.10518 7.06627 4.11705 7.11851 4.14009C7.17075 4.16314 7.21814 4.19691 7.25795 4.23944C7.29775 4.28198 7.32916 4.33243 7.35038 4.38789C7.37159 4.44334 7.38218 4.50269 7.38153 4.5625V5.12895C7.38153 5.24886 7.33644 5.36386 7.25619 5.44864C7.17594 5.53343 7.0671 5.58107 6.9536 5.58107H6.11251V6.47491C6.11251 6.53472 6.10128 6.59394 6.07947 6.64914C6.05766 6.70433 6.02569 6.75441 5.98544 6.79646C5.94518 6.83851 5.89742 6.8717 5.84493 6.89412C5.79245 6.91653 5.73627 6.92772 5.67966 6.92703H5.14352C5.10486 6.92389 5.0668 6.91514 5.03039 6.90105L4.78446 6.70357C4.74197 6.63552 4.71814 6.55638 4.7156 6.47491ZM16.1319 6.35019C16.1319 6.49569 16.0911 6.63795 16.0148 6.75907C15.9385 6.88018 15.83 6.97476 15.7029 7.03091C15.5759 7.08705 15.436 7.10226 15.3007 7.07462C15.1655 7.04698 15.0411 6.97772 14.943 6.87555C14.845 6.77339 14.7777 6.64287 14.7496 6.50042C14.7216 6.35796 14.734 6.20993 14.7854 6.07492C14.8367 5.93991 14.9247 5.82396 15.0383 5.74163C15.1518 5.65931 15.2859 5.6143 15.4236 5.61225C15.5161 5.61087 15.608 5.62894 15.6939 5.66541C15.7798 5.70188 15.8579 5.75601 15.9238 5.82468C15.9897 5.89334 16.0421 5.97515 16.0778 6.06537C16.1135 6.15558 16.1319 6.2524 16.1319 6.35019ZM15.4236 2.60332C15.6085 2.60191 15.7864 2.67746 15.919 2.81361C16.0515 2.94977 16.128 3.13559 16.1319 3.33087C16.1338 3.4768 16.0947 3.62006 16.0196 3.74253C15.9445 3.865 15.8367 3.96119 15.7098 4.01893C15.5829 4.07666 15.4427 4.09336 15.3069 4.0669C15.171 4.04044 15.0457 3.97202 14.9466 3.87029C14.8476 3.76855 14.7793 3.63807 14.7505 3.49535C14.7216 3.35262 14.7334 3.20406 14.7845 3.06845C14.8356 2.93284 14.9235 2.81627 15.0373 2.73348C15.151 2.65069 15.2855 2.60539 15.4236 2.60332Z" stroke="#704DFF" stroke-linecap="round" stroke-linejoin="round"/>
</g>
<defs>
<clipPath id="clip0_20_1877">
<rect width="21" height="15" fill="white"/>
</clipPath>
</defs>
</svg>
