<svg width="28" height="25" viewBox="0 0 28 25" fill="none" xmlns="http://www.w3.org/2000/svg">
<g clip-path="url(#clip0_44_2)">
<path d="M1.0769 14.1304L14 1.08691L26.9231 14.1304" stroke="#704DFF" stroke-linecap="round" stroke-linejoin="round"/>
<path d="M3.94867 11.2319V22.8261C3.94867 23.2105 4.09995 23.5791 4.36923 23.8509C4.63852 24.1227 5.00374 24.2754 5.38457 24.2754H9.69226C10.0731 24.2754 10.4383 24.1227 10.7076 23.8509C10.9769 23.5791 11.1282 23.2105 11.1282 22.8261V17.029C11.1282 16.6447 11.2794 16.276 11.5487 16.0042C11.818 15.7325 12.1832 15.5798 12.5641 15.5798H15.4358C15.8167 15.5798 16.1819 15.7325 16.4512 16.0042C16.7205 16.276 16.8717 16.6447 16.8717 17.029V22.8261C16.8717 23.2105 17.023 23.5791 17.2923 23.8509C17.5616 24.1227 17.9268 24.2754 18.3076 24.2754H22.6153C22.9962 24.2754 23.3614 24.1227 23.6307 23.8509C23.9 23.5791 24.0512 23.2105 24.0512 22.8261V11.2319" stroke="#704DFF" stroke-linecap="round" stroke-linejoin="round"/>
</g>
<defs>
<clipPath id="clip0_44_2">
<rect width="28" height="25" fill="white"/>
</clipPath>
</defs>
</svg>
