<svg width="28" height="28" viewBox="0 0 28 28" fill="none" xmlns="http://www.w3.org/2000/svg">
<g clip-path="url(#clip0_22_28)">
<path d="M5.20947 27.6317C5.20947 27.6317 4.47263 25.8706 4.58315 25.3106C4.60128 24.4723 4.47414 23.6372 4.20737 22.8422C4.0821 22.5622 3.47052 19.9611 3.40421 19.5854C3.33789 19.2096 3.15368 15.8348 3.40421 15.5254C3.76048 15.0902 4.02831 14.5896 4.19263 14.0517C4.12029 13.3863 4.22185 12.7135 4.48737 12.099C4.82631 11.6054 8.90842 7.05167 9.5421 6.80114C10.1758 6.55062 10.9642 6.43272 11.1853 6.27799C12.5722 5.79872 14.0122 5.48944 15.4737 5.35693C16.741 5.35693 20.2779 6.9043 21.1474 10.0359C22.0168 13.1675 23.6674 14.0001 23.9474 14.5601C24.2274 15.1201 24.3232 20.079 24.3232 21.4717C24.3232 22.8643 24.8463 23.579 24.6916 24.0727C24.5368 24.5664 23.4979 27.6317 23.4979 27.6317" stroke="#FBFBFB" stroke-linecap="round" stroke-linejoin="round"/>
<path d="M12.7916 21.9358C12.9856 22.5854 13.4123 23.1407 13.99 23.4955C14.5678 23.8504 15.256 23.9797 15.9232 23.8589C17.7505 23.5126 17.9347 22.5842 17.8758 21.5968C17.8589 21.1503 17.8171 20.705 17.7505 20.2631M16.6011 9.61576C17.0334 9.49104 17.4918 9.48907 17.9252 9.6101C18.3585 9.73112 18.7496 9.97036 19.0547 10.301C19.8874 11.2294 21.8105 13.58 21.0368 14.7221C20.2632 15.8642 17.9053 16.5494 16.8221 15.8347C15.739 15.12 14 13.6979 14.2505 12.7694C14.5011 11.841 16.0484 9.82208 16.6011 9.61576ZM9.97685 12.4231C10.8684 12.9389 12.2684 13.6021 11.8926 14.6337C11.5168 15.6652 10.1316 17.7284 9.29159 18.0084C8.45159 18.2884 6.87474 18.2884 6.34422 17.4484C5.81369 16.6084 5.6958 14.2284 6.07158 13.7642C6.44737 13.3 8.46632 11.5463 9.97685 12.4231Z" stroke="#FBFBFB" stroke-linecap="round" stroke-linejoin="round"/>
<path d="M6.31473 13.5652C6.81578 13.6831 7.57473 13.9484 7.50105 14.8694C7.44947 15.5179 6.15263 15.8789 5.9021 15.8494M19.0547 10.3157C18.8752 10.2782 18.6891 10.2862 18.5134 10.3391C18.3378 10.392 18.1782 10.488 18.0492 10.6184C17.9202 10.7489 17.826 10.9096 17.7751 11.0858C17.7242 11.262 17.7183 11.4482 17.7579 11.6273C17.9007 11.8777 18.1241 12.0723 18.3918 12.1794C18.6594 12.2865 18.9555 12.2996 19.2316 12.2168C19.4175 12.1391 19.5781 12.011 19.6953 11.847C19.8125 11.683 19.8815 11.4895 19.8947 11.2884" stroke="#FBFBFB" stroke-linecap="round" stroke-linejoin="round"/>
<path d="M26.1579 27.6316H1.84209C1.45125 27.6316 1.07641 27.4763 0.80004 27.1999C0.523671 26.9236 0.368408 26.5487 0.368408 26.1579V1.84209C0.368408 1.45125 0.523671 1.07641 0.80004 0.80004C1.07641 0.523671 1.45125 0.368408 1.84209 0.368408H26.1579C26.5487 0.368408 26.9236 0.523671 27.1999 0.80004C27.4763 1.07641 27.6316 1.45125 27.6316 1.84209V26.1579C27.6316 26.5487 27.4763 26.9236 27.1999 27.1999C26.9236 27.4763 26.5487 27.6316 26.1579 27.6316Z" stroke="#FBFBFB" stroke-linecap="round" stroke-linejoin="round"/>
</g>
<defs>
<clipPath id="clip0_22_28">
<rect width="28" height="28" fill="white"/>
</clipPath>
</defs>
</svg>
