<svg width="34" height="34" viewBox="0 0 34 34" fill="none" xmlns="http://www.w3.org/2000/svg">
<path fill-rule="evenodd" clip-rule="evenodd" d="M21.25 9.91667C21.2499 9.63652 21.1668 9.36268 21.0111 9.12977C20.8555 8.89686 20.6342 8.71533 20.3754 8.60813C20.1166 8.50093 19.8318 8.47287 19.557 8.52751C19.2823 8.58215 19.0299 8.71702 18.8317 8.91509L11.7484 15.9984C11.4828 16.2641 11.3336 16.6244 11.3336 17C11.3336 17.3757 11.4828 17.7359 11.7484 18.0016L18.8317 25.0849C19.0299 25.283 19.2823 25.4179 19.557 25.4725C19.8318 25.5271 20.1166 25.4991 20.3754 25.3919C20.6342 25.2847 20.8555 25.1031 21.0111 24.8702C21.1668 24.6373 21.2499 24.3635 21.25 24.0833V9.91667Z" fill="#704DFF"/>
</svg>
