<svg width="28" height="24" viewBox="0 0 28 24" fill="none" xmlns="http://www.w3.org/2000/svg">
<g clip-path="url(#clip0_22_35)">
<path d="M26 6H20V2C20 1.46957 19.7893 0.960859 19.4142 0.585786C19.0391 0.210714 18.5304 0 18 0H10C9.46957 0 8.96086 0.210714 8.58579 0.585786C8.21071 0.960859 8 1.46957 8 2V6H2C1.46957 6 0.960859 6.21071 0.585786 6.58579C0.210714 6.96086 0 7.46957 0 8V22C0 22.5304 0.210714 23.0391 0.585786 23.4142C0.960859 23.7893 1.46957 24 2 24H26C26.5304 24 27.0391 23.7893 27.4142 23.4142C27.7893 23.0391 28 22.5304 28 22V8C28 7.46957 27.7893 6.96086 27.4142 6.58579C27.0391 6.21071 26.5304 6 26 6ZM9.5 2.5C9.5 1.94772 9.94771 1.5 10.5 1.5H17.5C18.0523 1.5 18.5 1.94772 18.5 2.5V6H9.5V2.5ZM2.5 22.5C1.94772 22.5 1.5 22.0523 1.5 21.5V8.5C1.5 7.94772 1.94772 7.5 2.5 7.5H14H25.5C26.0523 7.5 26.5 7.94772 26.5 8.5V21.5C26.5 22.0523 26.0523 22.5 25.5 22.5H2.5Z" fill="#FBFBFB"/>
</g>
<defs>
<clipPath id="clip0_22_35">
<rect width="28" height="24" fill="white"/>
</clipPath>
</defs>
</svg>
